<svg width="454" height="600" viewBox="0 0 454 600" fill="none" xmlns="http://www.w3.org/2000/svg">
<g clip-path="url(#clip0_2185_6169)">
<rect x="454" width="1200" height="454" transform="rotate(90 454 0)" fill="#D7DFE8"/>
<rect x="400" y="1200" width="26" height="1200" transform="rotate(-180 400 1200)" fill="#F6F6F6"/>
<rect x="440" y="1200" width="26" height="1200" transform="rotate(-180 440 1200)" fill="#F6F6F6"/>
<rect x="360" y="1200" width="26" height="1200" transform="rotate(-180 360 1200)" fill="#F6F6F6"/>
<rect x="320" y="1200" width="26" height="1200" transform="rotate(-180 320 1200)" fill="#F6F6F6"/>
<rect x="280" y="1200" width="26" height="1200" transform="rotate(-180 280 1200)" fill="#F6F6F6"/>
<rect x="240" y="1200" width="26" height="1200" transform="rotate(-180 240 1200)" fill="#F6F6F6"/>
<rect x="200" y="1200" width="26" height="1200" transform="rotate(-180 200 1200)" fill="#F6F6F6"/>
<rect x="160" y="1200" width="26" height="1200" transform="rotate(-180 160 1200)" fill="#F6F6F6"/>
<rect x="120" y="1200" width="26" height="1200" transform="rotate(-180 120 1200)" fill="#F6F6F6"/>
<rect x="80" y="1200" width="26" height="1200" transform="rotate(-180 80 1200)" fill="#F6F6F6"/>
<rect x="40" y="1200" width="26" height="1200" transform="rotate(-180 40 1200)" fill="#F6F6F6"/>
<ellipse cx="160" cy="160" rx="146" ry="146" fill="#F6F6F6"/>
<ellipse cx="160" cy="160" rx="146" ry="146" fill="#F6F6F6"/>
<ellipse cx="305.5" cy="461.5" rx="125.5" ry="125.5" transform="rotate(90 305.5 461.5)" fill="#F6F6F6"/>
</g>
<defs>
<clipPath id="clip0_2185_6169">
<rect width="600" height="454" fill="white" transform="translate(454) rotate(90)"/>
</clipPath>
</defs>
</svg>
