<svg width="68" height="18" viewBox="0 0 68 18" fill="none" xmlns="http://www.w3.org/2000/svg">
<path d="M8.136 4.168V5.344L2.88 7.432L8.136 9.496V10.696L1.536 8.032V6.832L8.136 4.168Z" fill="#D72638"/>
<path d="M14.824 0.808H15.64L10.96 13.984H10.168L14.824 0.808Z" fill="#D72638"/>
<path d="M23.424 9.456C23.04 9.91467 22.5387 10.144 21.92 10.144C21.536 10.144 21.232 10.0587 21.008 9.888C20.7947 9.70667 20.608 9.40267 20.448 8.976L19.984 7.568C19.8773 7.28 19.7813 7.072 19.696 6.944C19.6107 6.80533 19.4773 6.69867 19.296 6.624L19.024 6.48L19.056 6.32C19.1413 6.33067 19.2533 6.336 19.392 6.336C19.52 6.336 19.6107 6.33067 19.664 6.32C20.0587 6.256 20.368 6.07467 20.592 5.776C20.816 5.47733 20.928 5.09333 20.928 4.624C20.928 4.05867 20.7947 3.61067 20.528 3.28C20.2613 2.93867 19.9093 2.768 19.472 2.768C18.992 2.768 18.752 2.992 18.752 3.44V7.904C18.752 8.32 18.784 8.656 18.848 8.912C18.9227 9.15733 19.0507 9.40267 19.232 9.648L19.36 9.84L19.232 10H16.448L16.336 9.712C16.6027 9.63733 16.7947 9.568 16.912 9.504C17.0293 9.42933 17.1093 9.33333 17.152 9.216C17.1947 9.09867 17.216 8.91733 17.216 8.672V4.416C17.216 4.04267 17.184 3.76 17.12 3.568C17.0667 3.36533 16.9333 3.2 16.72 3.072L16.528 2.96L16.592 2.752C16.9227 2.64533 17.344 2.56 17.856 2.496C18.3787 2.42133 18.8427 2.384 19.248 2.384C20.2613 2.384 21.0613 2.58667 21.648 2.992C22.2347 3.39733 22.528 3.952 22.528 4.656C22.528 5.14667 22.368 5.584 22.048 5.968C21.7387 6.34133 21.3387 6.592 20.848 6.72C21.232 6.89067 21.4987 7.17867 21.648 7.584L22.208 9.152C22.2933 9.408 22.4587 9.536 22.704 9.536C22.896 9.536 23.0933 9.45067 23.296 9.28L23.424 9.456ZM25.4111 6.464C25.1871 6.592 24.9205 6.656 24.6111 6.656C24.3871 6.656 24.2111 6.592 24.0831 6.464C23.9551 6.32533 23.8911 6.13333 23.8911 5.888C23.8911 5.52533 24.0671 5.23733 24.4191 5.024C24.7818 4.8 25.2511 4.688 25.8271 4.688C26.5098 4.688 27.0431 4.83733 27.4271 5.136C27.8218 5.43467 28.0191 5.84 28.0191 6.352V9.12C28.0191 9.41867 28.1258 9.568 28.3391 9.568C28.5418 9.568 28.7391 9.488 28.9311 9.328L29.0591 9.488C28.6645 9.92533 28.1951 10.144 27.6511 10.144C27.3311 10.144 27.0858 10.064 26.9151 9.904C26.7551 9.744 26.6591 9.49333 26.6271 9.152H26.5631C26.3925 9.46133 26.1631 9.70667 25.8751 9.888C25.5978 10.0587 25.2778 10.144 24.9151 10.144C24.5098 10.144 24.1845 10.0213 23.9391 9.776C23.6938 9.52 23.5711 9.18933 23.5711 8.784C23.5711 8.32533 23.7898 7.96267 24.2271 7.696C24.6645 7.42933 25.2565 7.296 26.0031 7.296C26.1418 7.296 26.3391 7.30667 26.5951 7.328V6.528C26.5951 6.00533 26.5311 5.632 26.4031 5.408C26.2751 5.17333 26.0671 5.056 25.7791 5.056C25.5765 5.056 25.4165 5.12 25.2991 5.248C25.1818 5.376 25.1231 5.54133 25.1231 5.744C25.1231 6.064 25.2191 6.304 25.4111 6.464ZM25.6511 9.344C26.2805 9.344 26.5951 8.77333 26.5951 7.632C26.0618 7.632 25.6618 7.72267 25.3951 7.904C25.1285 8.07467 24.9951 8.32 24.9951 8.64C24.9951 8.85333 25.0538 9.024 25.1711 9.152C25.2885 9.28 25.4485 9.344 25.6511 9.344ZM33.2389 4.688C33.7829 4.688 34.2202 4.928 34.5509 5.408C34.8922 5.87733 35.0629 6.496 35.0629 7.264C35.0629 7.808 34.9615 8.29867 34.7589 8.736C34.5669 9.16267 34.2895 9.49867 33.9269 9.744C33.5749 9.97867 33.1749 10.096 32.7269 10.096C32.4709 10.096 32.2255 10.0587 31.9909 9.984C31.7669 9.89867 31.5749 9.78133 31.4149 9.632V11.456C31.4149 11.712 31.4469 11.8827 31.5109 11.968C31.5855 12.064 31.7509 12.1387 32.0069 12.192L32.2149 12.24L32.1189 12.512H29.6389L29.5109 12.352L29.6389 12.192C29.7669 12.0213 29.8522 11.8347 29.8949 11.632C29.9482 11.44 29.9749 11.1787 29.9749 10.848V5.824C29.9749 5.632 29.9055 5.536 29.7669 5.536H29.2709L29.2229 5.36C29.4255 5.17867 29.6869 5.02933 30.0069 4.912C30.3375 4.79467 30.6575 4.736 30.9669 4.736C31.1055 4.736 31.2122 4.768 31.2869 4.832C31.3722 4.896 31.4149 4.98133 31.4149 5.088V5.792C31.6815 5.408 31.9589 5.13067 32.2469 4.96C32.5455 4.77867 32.8762 4.688 33.2389 4.688ZM32.1189 9.632C32.5562 9.632 32.8869 9.44533 33.1109 9.072C33.3455 8.69867 33.4629 8.14933 33.4629 7.424C33.4629 6.79467 33.3775 6.31467 33.2069 5.984C33.0362 5.64267 32.7909 5.472 32.4709 5.472C32.0442 5.472 31.6922 5.75467 31.4149 6.32V9.424C31.6175 9.56267 31.8522 9.632 32.1189 9.632ZM41.2615 9.088C41.2615 9.408 41.3628 9.568 41.5655 9.568C41.7682 9.568 41.9655 9.488 42.1575 9.328L42.2855 9.488C41.8908 9.92533 41.4268 10.144 40.8935 10.144C40.5095 10.144 40.2322 10.048 40.0615 9.856C39.9015 9.65333 39.8215 9.328 39.8215 8.88V6.432C39.8215 5.81333 39.6242 5.504 39.2295 5.504C38.8455 5.504 38.5362 5.76533 38.3015 6.288C38.0668 6.81067 37.9495 7.49333 37.9495 8.336C37.9495 8.66667 37.9708 8.93333 38.0135 9.136C38.0668 9.328 38.1522 9.50933 38.2695 9.68L38.3975 9.84L38.2695 10H35.9495L35.8535 9.728L36.0775 9.68C36.2482 9.63733 36.3602 9.57333 36.4135 9.488C36.4668 9.392 36.4935 9.21067 36.4935 8.944V3.232C36.4935 3.14667 36.4722 3.07733 36.4295 3.024C36.3975 2.97067 36.3495 2.944 36.2855 2.944H35.7895L35.7255 2.784C35.9282 2.592 36.1895 2.44267 36.5095 2.336C36.8402 2.21867 37.1655 2.16 37.4855 2.16C37.6242 2.16 37.7362 2.192 37.8215 2.256C37.9068 2.30933 37.9495 2.38933 37.9495 2.496V6.448C38.0988 5.94667 38.3602 5.53067 38.7335 5.2C39.1175 4.85867 39.5228 4.688 39.9495 4.688C40.4082 4.688 40.7388 4.83733 40.9415 5.136C41.1548 5.43467 41.2615 5.90933 41.2615 6.56V9.088ZM44.5986 6.464C44.3746 6.592 44.108 6.656 43.7986 6.656C43.5746 6.656 43.3986 6.592 43.2706 6.464C43.1426 6.32533 43.0786 6.13333 43.0786 5.888C43.0786 5.52533 43.2546 5.23733 43.6066 5.024C43.9693 4.8 44.4386 4.688 45.0146 4.688C45.6973 4.688 46.2306 4.83733 46.6146 5.136C47.0093 5.43467 47.2066 5.84 47.2066 6.352V9.12C47.2066 9.41867 47.3133 9.568 47.5266 9.568C47.7293 9.568 47.9266 9.488 48.1186 9.328L48.2466 9.488C47.852 9.92533 47.3826 10.144 46.8386 10.144C46.5186 10.144 46.2733 10.064 46.1026 9.904C45.9426 9.744 45.8466 9.49333 45.8146 9.152H45.7506C45.58 9.46133 45.3506 9.70667 45.0626 9.888C44.7853 10.0587 44.4653 10.144 44.1026 10.144C43.6973 10.144 43.372 10.0213 43.1266 9.776C42.8813 9.52 42.7586 9.18933 42.7586 8.784C42.7586 8.32533 42.9773 7.96267 43.4146 7.696C43.852 7.42933 44.444 7.296 45.1906 7.296C45.3293 7.296 45.5266 7.30667 45.7826 7.328V6.528C45.7826 6.00533 45.7186 5.632 45.5906 5.408C45.4626 5.17333 45.2546 5.056 44.9666 5.056C44.764 5.056 44.604 5.12 44.4866 5.248C44.3693 5.376 44.3106 5.54133 44.3106 5.744C44.3106 6.064 44.4066 6.304 44.5986 6.464ZM44.8386 9.344C45.468 9.344 45.7826 8.77333 45.7826 7.632C45.2493 7.632 44.8493 7.72267 44.5826 7.904C44.316 8.07467 44.1826 8.32 44.1826 8.64C44.1826 8.85333 44.2413 9.024 44.3586 9.152C44.476 9.28 44.636 9.344 44.8386 9.344ZM51.6584 9.616C51.9677 9.616 52.2397 9.56267 52.4744 9.456C52.709 9.33867 52.9384 9.14667 53.1624 8.88L53.3544 9.024C53.109 9.376 52.7944 9.65333 52.4104 9.856C52.037 10.048 51.6264 10.144 51.1784 10.144C50.6877 10.144 50.245 10.0267 49.8504 9.792C49.4664 9.55733 49.1624 9.23733 48.9384 8.832C48.7144 8.416 48.6024 7.94667 48.6024 7.424C48.6024 6.592 48.853 5.93067 49.3544 5.44C49.8664 4.93867 50.5437 4.688 51.3864 4.688C51.9837 4.688 52.469 4.832 52.8424 5.12C53.2264 5.39733 53.4184 5.76 53.4184 6.208C53.4184 6.72 53.1997 7.13067 52.7624 7.44C52.3357 7.73867 51.749 7.888 51.0024 7.888C50.7037 7.888 50.4317 7.86667 50.1864 7.824C50.2397 8.37867 50.3997 8.816 50.6664 9.136C50.933 9.456 51.2637 9.616 51.6584 9.616ZM51.2104 5.072C50.8797 5.072 50.6184 5.27467 50.4264 5.68C50.245 6.07467 50.1544 6.62933 50.1544 7.344V7.6C50.2717 7.6 50.4157 7.58933 50.5864 7.568C51.0344 7.51467 51.3757 7.37067 51.6104 7.136C51.8557 6.89067 51.9784 6.57067 51.9784 6.176C51.9784 5.856 51.9037 5.59467 51.7544 5.392C51.6157 5.17867 51.4344 5.072 51.2104 5.072ZM56.022 9.088C56.022 9.408 56.1233 9.568 56.326 9.568C56.5287 9.568 56.726 9.488 56.918 9.328L57.046 9.488C56.6727 9.92533 56.2087 10.144 55.654 10.144C55.2807 10.144 55.0087 10.0587 54.838 9.888C54.6673 9.70667 54.582 9.424 54.582 9.04V3.168C54.582 3.01867 54.5127 2.944 54.374 2.944H53.862L53.814 2.784C54.0167 2.592 54.278 2.44267 54.598 2.336C54.9287 2.21867 55.254 2.16 55.574 2.16C55.7127 2.16 55.8193 2.192 55.894 2.256C55.9793 2.30933 56.022 2.38933 56.022 2.496V9.088Z" fill="#232629"/>
<path d="M42.41 14L42.33 14.11C42.2367 14.23 42.1733 14.36 42.14 14.5C42.1133 14.64 42.1 14.8533 42.1 15.14V16L42 16.04L41.48 15.77C41.1533 15.9833 40.7867 16.09 40.38 16.09C39.7133 16.09 39.1833 15.8733 38.79 15.44C38.4033 15.0067 38.21 14.4233 38.21 13.69C38.21 12.9367 38.42 12.34 38.84 11.9C39.2667 11.46 39.84 11.24 40.56 11.24C41.02 11.24 41.3933 11.33 41.68 11.51C41.9733 11.6833 42.12 11.9133 42.12 12.2C42.12 12.48 42.0033 12.7 41.77 12.86C41.5367 13.02 41.2433 13.1 40.89 13.1C40.9833 12.9867 41.0567 12.8667 41.11 12.74C41.1633 12.6067 41.19 12.4367 41.19 12.23C41.19 12.0033 41.1233 11.8233 40.99 11.69C40.8567 11.55 40.69 11.48 40.49 11.48C40.1167 11.48 39.8167 11.6833 39.59 12.09C39.37 12.49 39.26 13.0233 39.26 13.69C39.26 14.0833 39.3167 14.4367 39.43 14.75C39.55 15.0567 39.7133 15.2967 39.92 15.47C40.1267 15.6433 40.3633 15.73 40.63 15.73C40.83 15.73 41.0233 15.6933 41.21 15.62V14.72C41.21 14.5667 41.1967 14.4567 41.17 14.39C41.1433 14.3167 41.0933 14.26 41.02 14.22C40.9467 14.1733 40.8267 14.1267 40.66 14.08L40.72 13.89H42.33L42.41 14ZM45.0389 12.68C45.2522 12.68 45.4256 12.7433 45.5589 12.87C45.6922 12.99 45.7589 13.1467 45.7589 13.34C45.7589 13.52 45.7056 13.6667 45.5989 13.78C45.4922 13.8867 45.3522 13.94 45.1789 13.94C45.0456 13.94 44.9222 13.9133 44.8089 13.86C44.9289 13.76 44.9889 13.61 44.9889 13.41C44.9889 13.3167 44.9689 13.2433 44.9289 13.19C44.8889 13.1367 44.8356 13.11 44.7689 13.11C44.6089 13.11 44.4756 13.2733 44.3689 13.6C44.2622 13.92 44.2089 14.32 44.2089 14.8C44.2089 15.0467 44.2222 15.2433 44.2489 15.39C44.2822 15.5367 44.3356 15.6733 44.4089 15.8L44.4889 15.9L44.4089 16H42.9589L42.8989 15.83L43.0389 15.8C43.1456 15.7733 43.2156 15.7333 43.2489 15.68C43.2822 15.62 43.2989 15.5067 43.2989 15.34V13.39C43.2989 13.2633 43.2556 13.2 43.1689 13.2H42.8589L42.8189 13.09C42.9456 12.9767 43.1022 12.8833 43.2889 12.81C43.4822 12.7367 43.6722 12.7 43.8589 12.7C43.9456 12.7 44.0156 12.72 44.0689 12.76C44.1222 12.8 44.1489 12.8533 44.1489 12.92V13.65H44.1789C44.3189 13.0033 44.6056 12.68 45.0389 12.68ZM47.9427 15.76C48.1361 15.76 48.3061 15.7267 48.4527 15.66C48.5994 15.5867 48.7427 15.4667 48.8827 15.3L49.0027 15.39C48.8494 15.61 48.6527 15.7833 48.4127 15.91C48.1794 16.03 47.9227 16.09 47.6427 16.09C47.3361 16.09 47.0594 16.0167 46.8127 15.87C46.5727 15.7233 46.3827 15.5233 46.2427 15.27C46.1027 15.01 46.0327 14.7167 46.0327 14.39C46.0327 13.87 46.1894 13.4567 46.5027 13.15C46.8227 12.8367 47.2461 12.68 47.7727 12.68C48.1461 12.68 48.4494 12.77 48.6827 12.95C48.9227 13.1233 49.0427 13.35 49.0427 13.63C49.0427 13.95 48.9061 14.2067 48.6327 14.4C48.3661 14.5867 47.9994 14.68 47.5327 14.68C47.3461 14.68 47.1761 14.6667 47.0227 14.64C47.0561 14.9867 47.1561 15.26 47.3227 15.46C47.4894 15.66 47.6961 15.76 47.9427 15.76ZM47.6627 12.92C47.4561 12.92 47.2927 13.0467 47.1727 13.3C47.0594 13.5467 47.0027 13.8933 47.0027 14.34V14.5C47.0761 14.5 47.1661 14.4933 47.2727 14.48C47.5527 14.4467 47.7661 14.3567 47.9127 14.21C48.0661 14.0567 48.1427 13.8567 48.1427 13.61C48.1427 13.41 48.0961 13.2467 48.0027 13.12C47.9161 12.9867 47.8027 12.92 47.6627 12.92ZM50.59 16.94C50.59 17.0867 50.6333 17.2067 50.72 17.3C50.8133 17.3933 50.93 17.44 51.07 17.44C51.5367 17.44 51.77 17.06 51.77 16.3V15.33C51.6033 15.5233 51.43 15.6667 51.25 15.76C51.07 15.8533 50.87 15.9 50.65 15.9C50.3233 15.9 50.0567 15.7633 49.85 15.49C49.65 15.2167 49.55 14.8567 49.55 14.41C49.55 13.8767 49.7133 13.4567 50.04 13.15C50.3667 12.8367 50.8067 12.68 51.36 12.68C51.5067 12.68 51.6667 12.6933 51.84 12.72C52.02 12.7467 52.13 12.7633 52.17 12.77C52.45 12.81 52.6433 12.8367 52.75 12.85L52.83 12.93L52.75 13.05C52.69 13.13 52.66 13.2133 52.66 13.3V16C52.66 16.5267 52.5067 16.9333 52.2 17.22C51.9 17.5133 51.48 17.66 50.94 17.66C50.6067 17.66 50.3367 17.5967 50.13 17.47C49.9233 17.3433 49.82 17.1767 49.82 16.97C49.82 16.79 49.8733 16.6433 49.98 16.53C50.0867 16.4233 50.2267 16.37 50.4 16.37C50.5267 16.37 50.65 16.3967 50.77 16.45C50.65 16.57 50.59 16.7333 50.59 16.94ZM51.13 15.42C51.3967 15.42 51.6067 15.28 51.76 15V13.01C51.6067 12.9433 51.46 12.91 51.32 12.91C51.0667 12.91 50.8733 13.0233 50.74 13.25C50.6133 13.47 50.55 13.7933 50.55 14.22C50.55 14.6067 50.6 14.9033 50.7 15.11C50.8 15.3167 50.9433 15.42 51.13 15.42ZM54.5646 16.94C54.5646 17.0867 54.6079 17.2067 54.6946 17.3C54.7879 17.3933 54.9046 17.44 55.0446 17.44C55.5113 17.44 55.7446 17.06 55.7446 16.3V15.33C55.5779 15.5233 55.4046 15.6667 55.2246 15.76C55.0446 15.8533 54.8446 15.9 54.6246 15.9C54.2979 15.9 54.0313 15.7633 53.8246 15.49C53.6246 15.2167 53.5246 14.8567 53.5246 14.41C53.5246 13.8767 53.6879 13.4567 54.0146 13.15C54.3413 12.8367 54.7813 12.68 55.3346 12.68C55.4813 12.68 55.6413 12.6933 55.8146 12.72C55.9946 12.7467 56.1046 12.7633 56.1446 12.77C56.4246 12.81 56.6179 12.8367 56.7246 12.85L56.8046 12.93L56.7246 13.05C56.6646 13.13 56.6346 13.2133 56.6346 13.3V16C56.6346 16.5267 56.4813 16.9333 56.1746 17.22C55.8746 17.5133 55.4546 17.66 54.9146 17.66C54.5813 17.66 54.3113 17.5967 54.1046 17.47C53.8979 17.3433 53.7946 17.1767 53.7946 16.97C53.7946 16.79 53.8479 16.6433 53.9546 16.53C54.0613 16.4233 54.2013 16.37 54.3746 16.37C54.5013 16.37 54.6246 16.3967 54.7446 16.45C54.6246 16.57 54.5646 16.7333 54.5646 16.94ZM55.1046 15.42C55.3713 15.42 55.5813 15.28 55.7346 15V13.01C55.5813 12.9433 55.4346 12.91 55.2946 12.91C55.0413 12.91 54.8479 13.0233 54.7146 13.25C54.5879 13.47 54.5246 13.7933 54.5246 14.22C54.5246 14.6067 54.5746 14.9033 54.6746 15.11C54.7746 15.3167 54.9179 15.42 55.1046 15.42Z" fill="#232629"/>
<path d="M59.56 10.696V9.496L64.84 7.432L59.56 5.344V4.168L66.16 6.832V8.032L59.56 10.696Z" fill="#D72638"/>
</svg>
