<svg width="120" height="34" viewBox="0 0 120 34" fill="none" xmlns="http://www.w3.org/2000/svg">
<g clip-path="url(#clip0_65_3456)">
<path d="M51.5894 8.48204V16.9641H53.3904H55.1797L55.2146 12.8625C55.2494 9.09786 55.2727 8.73767 55.4702 8.31938C56.086 7.07612 57.9683 6.69268 58.9908 7.58736C59.7693 8.2729 59.7693 8.31938 59.8158 12.8625L59.8623 16.9641H61.6633H63.4642L63.4178 12.2815C63.3713 7.86623 63.3597 7.57574 63.1157 6.94831C62.5928 5.50752 61.6168 4.60122 60.2457 4.24103C58.2123 3.71816 56.179 4.46179 55.3656 6.03039L55.0868 6.56487L55.0752 3.27663V8.02055e-06H53.3323H51.5894V8.48204Z" fill="#232629"/>
<path d="M93.4186 8.48204V16.9641H95.2196H97.0206V8.48204V8.02055e-06H95.2196H93.4186V8.48204Z" fill="#232629"/>
<path d="M103.376 1.12707C103.295 1.2665 98.5311 19.0207 98.5311 19.1717C98.5311 19.2531 99.0772 19.2879 100.297 19.2647L102.063 19.2298L104.48 10.283C105.805 5.35647 106.897 1.2665 106.897 1.18517C106.897 1.08059 106.479 1.04573 105.166 1.04573C104.201 1.04573 103.4 1.08059 103.376 1.12707Z" fill="#D72638"/>
<path d="M19.8108 4.21779C19.1252 4.48503 18.6024 4.8917 18.2538 5.44943C18.0563 5.75153 17.882 6.07686 17.8704 6.16982C17.8587 6.26277 17.8239 5.8561 17.789 5.28676L17.7193 4.24103H15.9764H14.2335L14.1987 10.5967L14.1754 16.9641H16.0345H17.8936V13.0716C17.8936 9.81826 17.9285 9.09786 18.0679 8.73767C18.4746 7.77327 19.2879 7.27364 20.5079 7.27364C20.9611 7.26203 21.4839 7.28526 21.6698 7.32012L22.0184 7.37822L22.0533 5.798C22.0881 4.22941 22.0765 4.20617 21.8209 4.13645C21.391 4.02026 20.1826 4.07836 19.8108 4.21779Z" fill="#232629"/>
<path d="M27.0844 4.24102C25.4461 4.61284 24.3074 5.44942 23.6451 6.76239C23.4244 7.21554 23.2384 7.65707 23.2384 7.73841C23.2384 7.94756 23.4592 7.99403 24.9232 8.07537C25.632 8.11022 26.2943 8.17994 26.4105 8.20318C26.5383 8.24966 26.608 8.20318 26.608 8.08699C26.608 7.99403 26.7475 7.75003 26.9217 7.54088C28.0604 6.19305 30.5586 6.62296 30.5586 8.17994C30.5586 9.01652 30.3727 9.10948 28.4555 9.35348C24.6909 9.82987 23.4592 10.4805 22.9363 12.2931C22.6923 13.1297 22.7737 14.4427 23.1223 15.1515C23.4244 15.7905 24.2493 16.5574 24.9581 16.8827C25.632 17.1848 27.5027 17.2894 28.4206 17.0919C29.1759 16.9176 30.0125 16.3715 30.454 15.7673L30.7909 15.3025V16.1275V16.9641H32.5455H34.2883L34.2535 12.1653C34.2186 7.47117 34.2186 7.36659 33.9514 6.80887C33.3937 5.60047 32.5571 4.88008 31.1395 4.41531C30.1519 4.07835 28.1418 3.99702 27.0844 4.24102ZM30.6167 12.7463C30.4191 14.0709 28.8389 15.0237 27.4446 14.6519C26.7126 14.4543 26.364 14.0941 26.3059 13.4783C26.1897 12.4093 26.7707 11.991 28.8622 11.6192C29.629 11.4914 30.3262 11.3288 30.4308 11.2707C30.5818 11.1893 30.6283 11.259 30.6515 11.7122C30.6748 12.0143 30.6631 12.4791 30.6167 12.7463Z" fill="#232629"/>
<path d="M43.0492 4.1713C42.1081 4.41531 41.3528 4.99627 40.7835 5.87933L40.4349 6.43705V5.30999V4.18292H38.6339H36.8329V12.9554V21.728H38.6339H40.4349V18.3468V14.9656L40.8183 15.5233C41.562 16.6387 42.6774 17.1965 44.1531 17.1965C46.6163 17.1965 48.4987 15.5349 49.0912 12.8276C49.3817 11.5728 49.2888 8.85385 48.9286 7.76165C48.4289 6.20467 47.267 4.92655 45.8959 4.40369C45.1988 4.13645 43.6418 4.00863 43.0492 4.1713ZM43.8974 7.14583C44.8037 7.52926 45.3498 8.41232 45.559 9.79501C45.7798 11.2707 45.4544 12.6998 44.7108 13.548C44.246 14.0825 43.758 14.2917 42.9911 14.2917C41.2947 14.2917 40.342 12.7579 40.4581 10.2365C40.5046 9.28376 40.5743 8.97005 40.83 8.43556C41.4458 7.1923 42.7123 6.65782 43.8974 7.14583Z" fill="#232629"/>
<path d="M69.9478 4.19455C68.1584 4.49665 66.6595 5.68181 66.1134 7.22716C65.8462 7.98241 65.7997 7.95917 67.5658 8.06375C68.2746 8.11022 68.9253 8.16832 69.0182 8.20318C69.1344 8.22642 69.2855 8.0986 69.4249 7.83136C70.1337 6.51839 72.5388 6.35572 73.1198 7.58736C73.4568 8.28451 73.3638 8.73766 72.8293 9.01652C72.6318 9.1211 71.6906 9.29539 70.7262 9.4232C68.1816 9.73692 67.438 9.98092 66.5666 10.771C65.6835 11.5728 65.3233 12.7695 65.5441 14.1755C65.7416 15.4536 66.3574 16.2437 67.5658 16.813C68.17 17.0919 68.4373 17.1384 69.5411 17.1732C71.191 17.2313 71.9114 16.9873 72.8177 16.081L73.4335 15.4652V16.2204V16.9641H75.1764H76.9309L76.8961 12.1072L76.8612 7.26202L76.5359 6.61134C75.5947 4.67093 72.9339 3.70654 69.9478 4.19455ZM73.3173 12.0724C73.3173 12.5139 73.2592 13.0252 73.1895 13.2111C73.0268 13.6526 72.5388 14.1522 71.9811 14.4427C71.3653 14.7564 70.1685 14.7797 69.6224 14.4892C69.146 14.2336 68.8555 13.6061 68.9601 13.06C69.0415 12.5836 69.6689 12.0143 70.2615 11.8749C70.7146 11.7587 72.9107 11.3171 73.1779 11.2823C73.2709 11.2707 73.3173 11.503 73.3173 12.0724Z" fill="#232629"/>
<path d="M83.426 4.31074C81.4043 4.83361 79.9519 6.32087 79.2896 8.55176C79.034 9.41158 78.9991 11.7354 79.2315 12.665C79.5104 13.792 80.0449 14.768 80.8001 15.5233C82.0317 16.7433 83.3331 17.2313 85.4013 17.2313C86.1333 17.2313 86.9118 17.15 87.3417 17.0454C89.2124 16.5574 90.5603 15.3722 91.0366 13.7804L91.1877 13.2692L89.5494 13.1646C88.1318 13.0833 87.8878 13.0949 87.7833 13.2459C87.4579 13.7456 86.7956 14.28 86.389 14.3962C84.7623 14.8494 83.2169 14.1058 82.7986 12.6766C82.45 11.5147 82.0201 11.6192 86.9118 11.6192H91.2109V10.4806C91.2109 8.45881 90.6416 6.85535 89.5378 5.73991C88.0737 4.2875 85.6686 3.71816 83.426 4.31074ZM86.3657 7.0064C87.0745 7.3085 87.8414 8.41233 87.8414 9.14434C87.8414 9.26053 87.2372 9.29539 85.2154 9.29539H82.5895L82.6708 8.91196C82.8451 8.09861 83.6003 7.20393 84.3556 6.93669C84.7042 6.80887 86.0055 6.85535 86.3657 7.0064Z" fill="#232629"/>
<path d="M5.48428 6.76239L0 8.97005L0.0232385 10.7943L0.0580961 12.6069L5.61209 14.8378L11.1545 17.057V15.1282V13.1878L7.80812 12.0375C5.97228 11.4101 4.43855 10.8524 4.39207 10.8175C4.34559 10.7826 5.83285 10.2133 7.70355 9.57425L11.0964 8.4007L11.1312 6.46029C11.1428 5.40294 11.1196 4.5315 11.0731 4.54312C11.015 4.54312 8.50528 5.54237 5.48428 6.76239Z" fill="#D72638"/>
<path d="M108.779 6.44867L108.814 8.4007L112.207 9.57425C114.078 10.2133 115.565 10.7826 115.518 10.8175C115.472 10.8524 113.938 11.4101 112.102 12.0375L108.756 13.1878V15.1282V17.057L114.31 14.8378L119.852 12.6069L119.887 10.8059L119.91 9.0049L114.484 6.80887C111.487 5.60047 108.977 4.5896 108.895 4.56636C108.779 4.51988 108.756 4.91494 108.779 6.44867Z" fill="#D72638"/>
<path d="M54.9822 21.4218C53.9481 21.7587 53.2974 22.3978 52.7281 23.641C52.4841 24.1639 52.4608 24.3963 52.4608 25.8487C52.4608 27.4638 52.4608 27.487 52.8443 28.2539C53.5066 29.6133 54.4942 30.2059 56.0512 30.2059C57.0388 30.2059 57.6546 29.9619 58.1891 29.3461L58.5609 28.9162V29.9154C58.5609 30.5777 58.5028 31.0309 58.3867 31.2516C57.8986 32.1928 56.0744 32.2857 55.3076 31.4143L54.959 31.0076L53.7971 31.1471C53.158 31.2284 52.6351 31.3446 52.6351 31.3911C52.6351 31.4492 52.7048 31.6583 52.7978 31.8791C53.402 33.3199 55.4005 34.1216 57.643 33.8195C58.8166 33.6568 59.6648 33.285 60.2806 32.6576C61.1056 31.8094 61.1172 31.7164 61.1172 26.2321V21.3753H59.8391H58.5609V22.0957V22.8045L58.2124 22.3281C58.0265 22.0608 57.643 21.7355 57.3758 21.5961C56.76 21.2823 55.6561 21.201 54.9822 21.4218ZM57.643 23.6178C58.2705 24.0361 58.5609 24.7332 58.5609 25.8487C58.5609 26.906 58.3053 27.6264 57.8289 27.9402C56.2603 28.9626 54.7382 27.58 55.0171 25.3723C55.2146 23.7224 56.516 22.8625 57.643 23.6178Z" fill="#232629"/>
<path d="M66.7525 21.4799C66.2877 21.689 65.9043 22.0376 65.6719 22.4791C65.5673 22.6766 65.5441 22.5953 65.5325 22.0376V21.3753H64.2543H62.9762V25.8487V30.3221H64.2543H65.5208L65.5557 27.487C65.5906 24.803 65.6022 24.6287 65.8346 24.3149C66.2645 23.734 66.7757 23.5248 67.6588 23.5481L68.4373 23.5597V22.4791C68.4373 21.6077 68.4024 21.3869 68.2514 21.3288C67.9028 21.201 67.2172 21.2591 66.7525 21.4799Z" fill="#232629"/>
<path d="M72.2019 21.3753C71.1097 21.5961 69.9361 22.4907 69.4133 23.4784C68.8904 24.5009 68.7394 26.3599 69.0879 27.5451C69.4714 28.8581 70.4009 29.8573 71.6093 30.2872C72.0508 30.4383 72.5505 30.4964 73.4335 30.4964C74.5257 30.4848 74.7349 30.4499 75.3856 30.1478C75.8619 29.9387 76.2919 29.6249 76.6288 29.2531C77.1168 28.707 77.4886 27.9402 77.3376 27.7891C77.2911 27.7543 76.7799 27.6845 76.1873 27.6497L75.1183 27.58L74.8511 27.9053C74.7 28.0912 74.4212 28.312 74.2469 28.4049C73.7821 28.6489 72.8758 28.6257 72.3878 28.3585C71.923 28.1144 71.4583 27.3941 71.4583 26.9293V26.6039L74.456 26.5807L77.4422 26.5459L77.4073 25.6163C77.3957 25.1051 77.3027 24.4195 77.2098 24.1058C76.6172 22.0608 74.5141 20.9221 72.2019 21.3753ZM74.1307 23.4551C74.5606 23.6759 74.8743 24.1174 75.0021 24.6519L75.0835 24.9773H73.2709C71.4931 24.9773 71.4583 24.9773 71.4583 24.7333C71.4583 24.3382 71.9114 23.7108 72.3646 23.4668C72.9107 23.1879 73.6194 23.1763 74.1307 23.4551Z" fill="#232629"/>
<path d="M81.1255 21.4682C80.2075 21.8052 79.7079 22.2583 79.185 23.2925L78.7203 24.1988V25.8371C78.7203 27.4638 78.7203 27.487 79.1037 28.2539C79.766 29.6133 80.7536 30.2059 82.3106 30.2059C83.2983 30.2059 83.9141 29.9619 84.4486 29.3461L84.8204 28.9162V29.9154C84.8204 30.5777 84.7623 31.0309 84.6461 31.2516C84.1581 32.1928 82.3339 32.2857 81.567 31.4143L81.2184 31.0076L80.0565 31.1471C79.4174 31.2284 78.8946 31.3446 78.8946 31.3911C78.8946 31.4492 78.9643 31.6583 79.0572 31.8791C79.6614 33.3199 81.6599 34.1216 83.9025 33.8195C85.076 33.6568 85.9242 33.285 86.54 32.6576C87.365 31.8094 87.3766 31.7164 87.3766 26.2321V21.3753H86.0985H84.8204V22.0957V22.8045L84.4718 22.3281C83.7979 21.3869 82.3803 21.0267 81.1255 21.4682ZM83.9025 23.6178C84.5299 24.0361 84.8204 24.7332 84.8204 25.8487C84.8204 26.906 84.5647 27.6264 84.0884 27.9402C82.5198 28.9626 80.9976 27.58 81.2765 25.3723C81.474 23.7224 82.7754 22.8625 83.9025 23.6178Z" fill="#232629"/>
<path d="M91.6176 21.4218C90.8856 21.6542 90.4557 21.9098 90.049 22.3862C89.166 23.3854 88.736 25.1748 88.98 26.8015C89.3402 29.0556 90.5719 30.2059 92.6285 30.2059C93.6277 30.2059 94.29 29.927 94.8245 29.2996L95.1731 28.8697L95.1382 29.9851C95.115 30.9147 95.0569 31.1587 94.871 31.3678C94.4876 31.7861 93.9879 31.9836 93.3024 31.9836C92.582 31.9836 92.0359 31.7513 91.7106 31.3097L91.5014 31.0076L90.3627 31.1471C89.5959 31.24 89.2357 31.333 89.2357 31.4375C89.2357 32.0301 90.142 33.0875 90.9553 33.436C92.7912 34.2262 95.4055 33.9357 96.6487 32.8202C97.6712 31.9023 97.6596 32.0185 97.6945 26.3367L97.7293 21.3753H96.4396H95.1615V22.0957C95.1499 22.7696 95.1382 22.8045 94.9872 22.5953C94.1157 21.4334 92.919 21.0151 91.6176 21.4218ZM94.1971 23.5829C94.8361 23.9664 95.1034 24.6403 95.1034 25.8487C95.1034 26.7318 95.0569 26.9641 94.8361 27.3708C94.139 28.5792 92.5007 28.5792 91.8616 27.3592C91.513 26.6969 91.513 25.0005 91.8616 24.3382C92.338 23.4203 93.3837 23.0833 94.1971 23.5829Z" fill="#232629"/>
</g>
<defs>
<clipPath id="clip0_65_3456">
<rect width="120" height="33.924" fill="white"/>
</clipPath>
</defs>
</svg>
