<svg width="1451" height="373" viewBox="0 0 1451 373" fill="none" xmlns="http://www.w3.org/2000/svg">
<g clip-path="url(#clip0_67_3533)">
<path d="M743.958 253.786C731.389 258.366 723.081 271.787 721.377 290.427C718.82 318.654 733.733 340.49 755.568 340.49C761.32 340.49 768.883 338.147 773.25 335.164L776.659 332.714L776.126 339.318C775.593 347.2 773.357 350.715 766.753 354.124C758.018 358.491 746.195 356.361 738.419 348.905L735.117 345.709L730.644 351.568C725.318 358.491 725.637 359.769 733.413 364.882C740.656 369.782 748.645 371.806 759.296 371.806C775.38 371.593 787.949 364.35 793.488 351.887C796.045 346.348 796.045 346.135 796.364 299.694L796.684 253.147H787.523H778.469V256.875C778.469 260.922 777.404 261.561 775.167 258.792C774.315 257.833 771.333 255.916 768.35 254.638C762.066 251.655 750.669 251.229 743.958 253.786ZM768.244 269.55C770.161 270.296 772.717 272.32 773.996 273.917C776.232 276.687 776.339 277.965 776.339 296.499V316.204L773.037 319.293C766.646 325.258 755.888 325.791 749.603 320.571C743.212 315.139 741.721 310.559 741.721 296.286C741.721 285.208 742.041 282.971 744.065 279.243C746.408 274.876 749.71 271.361 753.438 269.337C756.42 267.633 763.983 267.739 768.244 269.55Z" fill="#232629"/>
<path d="M843.977 254.105C841.634 255.17 838.758 257.088 837.693 258.366C835.349 260.922 833.858 259.857 833.858 255.49C833.858 253.253 833.432 253.146 824.804 253.146H815.75V295.753V338.359H825.337H834.923V309.174C834.923 280.947 835.03 279.988 837.267 277.113C840.462 273.065 845.895 271.041 853.777 271.148H860.594L860.274 261.881L859.955 252.614L854.096 252.294C850.155 252.188 846.853 252.72 843.977 254.105Z" fill="#232629"/>
<path d="M894.04 253.573C880.938 257.727 871.352 269.018 867.943 284.249C865.813 293.729 866.984 309.92 870.286 317.269C877.53 333.034 893.507 341.875 911.721 340.17C921.521 339.318 928.338 336.336 935.048 330.158L940.907 324.619L935.581 319.293L930.362 313.861L927.06 316.95C919.39 324.512 907.354 326.643 898.726 322.063C893.4 319.187 888.501 312.263 887.436 306.085L886.796 302.144H914.81H942.824L942.078 292.771C941.013 279.669 939.629 274.45 935.794 267.952C929.403 257.407 919.071 251.975 905.33 252.188C901.496 252.188 896.383 252.827 894.04 253.573ZM913.958 269.87C918.112 272.426 921.095 277.326 921.84 283.397L922.586 288.297H904.798H886.903L887.649 284.782C888.82 279.35 892.655 273.172 896.596 270.509C901.07 267.42 909.271 267.207 913.958 269.87Z" fill="#232629"/>
<path d="M977.654 253.04C972.115 254.851 966.044 258.472 963.275 261.881C952.09 275.089 949.215 299.375 956.458 318.867C959.76 327.495 968.813 336.442 976.589 338.786C986.921 341.875 997.466 340.277 1005.03 334.525L1008.86 331.649L1008.01 337.933C1006.84 347.626 1004.07 351.674 996.508 354.87C988.199 358.278 976.696 355.828 969.559 348.905L966.257 345.709L961.783 351.674C956.564 358.598 956.777 359.769 964.553 364.882C980.637 375.534 1005.67 374.042 1018.02 361.687C1019.94 359.876 1022.71 355.828 1024.31 352.846L1027.18 347.413L1027.5 300.227L1027.82 253.147H1018.66H1009.61V257.407V261.774L1006.73 259.005C1001.73 254.425 996.827 252.721 988.306 252.401C983.939 252.294 979.146 252.507 977.654 253.04ZM999.277 269.55C1001.19 270.296 1004.07 272.533 1005.67 274.343L1008.54 277.858V296.286V314.819L1004.82 318.548C997.573 325.791 986.495 326.11 979.678 319.293C970.411 310.026 969.666 284.782 978.4 274.343C983.406 268.378 991.928 266.461 999.277 269.55Z" fill="#232629"/>
<path d="M1067.02 253.573C1060.74 255.81 1055.73 259.325 1052.22 264.118C1042.63 277.113 1040.39 300.972 1047 318.761C1050.3 327.495 1059.25 336.442 1067.13 338.786C1077.46 341.875 1088.01 340.277 1095.57 334.525L1099.4 331.649L1098.66 337.721C1097.49 347.733 1093.76 352.739 1085.56 355.509C1077.99 357.959 1065.42 354.763 1060.31 349.118C1059.14 347.84 1057.76 346.881 1057.12 346.881C1056.48 346.987 1054.13 349.331 1051.79 352.313L1047.64 357.639L1051.26 361.367C1055.94 366.16 1063.83 369.888 1072.88 371.486C1087.58 374.043 1104.2 368.504 1111.44 358.598C1118.04 349.65 1118.26 348.159 1118.26 298.203V253.147H1109.2H1100.15V256.981V260.816L1096.42 258.046C1094.4 256.449 1090.78 254.531 1088.33 253.679C1082.89 251.762 1072.24 251.655 1067.02 253.573ZM1089.82 269.55C1091.73 270.296 1094.61 272.533 1096.21 274.343L1099.08 277.858V296.286V314.82L1095.57 318.441C1086.2 328.454 1070.43 325.045 1065.32 311.944C1062.97 305.766 1062.66 287.764 1064.79 281.586C1068.73 270.509 1079.59 265.29 1089.82 269.55Z" fill="#232629"/>
<path d="M1083.19 110.579V220.44H1100.69H1118.19V110.579V0.718423H1100.69H1083.19V110.579Z" fill="#232629"/>
<path d="M967.106 65.6633C948.829 71.4966 934.829 84.5243 925.301 104.747C919.079 117.969 918.884 118.941 918.884 144.608C918.884 168.913 919.273 171.635 923.94 181.746C933.856 202.552 950.773 216.746 972.162 221.608C1000.94 228.413 1027.77 221.413 1046.25 202.163L1052.86 195.163L1043.33 185.441L1033.8 175.719L1027.77 181.358C1013.77 195.163 991.801 199.052 976.051 190.691C966.329 185.441 957.384 172.802 955.44 161.524L954.273 154.33H1005.41H1056.55L1055.19 137.219C1053.25 113.302 1050.72 103.774 1043.72 91.9132C1032.05 72.6632 1013.19 62.7466 988.106 63.1355C981.106 63.1355 971.579 64.3021 967.106 65.6633ZM1003.86 95.4132C1011.44 100.08 1016.88 109.024 1018.25 120.108L1019.61 129.052H987.134H954.468L955.829 122.635C957.968 112.719 964.968 101.441 972.162 96.5799C980.329 90.941 995.301 90.5521 1003.86 95.4132Z" fill="#232629"/>
<path d="M807.858 64.6866C788.997 69.5477 770.33 85.1032 766.442 99.1032C762.942 111.742 762.553 111.548 782.386 111.548H800.469L802.219 105.325C805.33 95.6032 813.108 91.131 827.497 91.131C837.025 91.131 840.719 91.9088 844.025 95.0199C849.664 100.075 853.747 109.603 853.747 117.964V124.575L831.969 125.742C782.58 128.464 761.192 144.603 761.58 178.825C761.58 188.159 762.747 192.631 767.025 199.825C782.191 225.686 823.803 232.298 848.108 212.659C854.914 207.214 855.691 207.02 855.691 210.52C855.691 219.853 857.053 220.436 876.497 220.436H894.969L893.802 214.992C889.914 198.27 888.747 181.936 888.747 143.631C888.747 96.1866 887.58 91.3255 875.525 79.2699C865.025 68.5755 853.164 64.2977 832.358 63.7144C822.247 63.3255 811.164 63.7144 807.858 64.6866ZM853.747 163.27C853.747 177.853 853.553 178.436 846.941 184.464C827.886 202.548 797.358 196.131 797.358 173.964C797.358 157.825 812.33 148.881 839.747 148.687L853.747 148.492V163.27Z" fill="#232629"/>
<path d="M604.856 110.587V220.448H622.356H639.856V165.226V110.004L644.717 104.171C658.523 87.8375 687.495 88.4208 694.689 105.337C696.245 108.837 697.217 129.254 697.8 165.421L698.578 220.448H715.884H733.189V163.476C733.189 118.56 732.606 104.365 730.273 96.5875C723.856 75.0042 711.217 65.0875 688.273 63.3375C671.745 62.1709 659.495 65.4764 648.411 74.032L639.856 80.4486V40.5876V0.726479H622.356H604.856V110.587Z" fill="#232629"/>
<path d="M496.94 65.0798C490.912 67.4132 478.467 75.7743 476.134 79.2743C475.356 80.4409 474.579 77.7187 474.579 73.052V64.6909L457.662 65.2743L440.551 65.8576L439.968 173.191L439.579 280.719H458.051H476.523V244.552V208.385L482.356 213.441C494.412 223.357 516.19 226.857 534.079 221.413C564.801 212.274 581.912 172.996 575.884 125.358C572.384 97.7465 560.717 78.1076 541.856 68.3854C532.523 63.5243 506.467 61.5798 496.94 65.0798ZM521.245 95.6076C525.717 97.9409 530.19 102.996 533.884 109.802C539.329 119.719 539.717 121.469 539.717 142.663C539.717 163.08 539.329 165.996 534.467 175.913C523.384 198.08 497.329 201.969 481.773 183.691L476.523 177.274V142.858C476.523 108.635 476.523 108.246 481.384 102.996C491.301 92.302 508.801 88.9965 521.245 95.6076Z" fill="#232629"/>
<path d="M321.94 65.4611C297.829 73.4333 282.079 89.3777 282.079 105.711V111.544H299.19H316.107L319.218 104.155C324.468 91.711 341.579 86.461 356.94 92.8777C364.912 96.3777 369.579 104.739 369.579 116.017V124.572L347.801 125.739C322.912 127.1 310.273 130.211 297.44 138.378C280.135 149.461 272.94 176.489 281.885 196.322C289.273 212.461 309.885 224.322 330.496 224.322C342.551 224.322 351.496 221.6 362.19 214.794L371.329 208.961L373.273 214.794L375.218 220.433H393.69C403.996 220.433 412.357 220.239 412.357 219.85C412.357 219.655 410.996 215.183 409.44 209.933C407.301 202.544 406.523 189.517 406.523 154.322C406.523 103.183 405.162 94.4333 394.857 81.9888C391.551 78.0999 383.968 72.4611 377.94 69.35C368.412 64.8777 363.94 63.9055 348.19 63.5166C336.718 63.1277 326.801 63.9055 321.94 65.4611ZM369.579 163.655C369.579 177.655 369.19 179.211 364.329 184.072C341.968 205.266 306.579 193.016 315.135 166.961C319.218 154.711 331.857 149.072 356.551 148.683L369.579 148.489V163.655Z" fill="#232629"/>
<path d="M238.329 66.0597C235.218 67.8097 229.579 71.8931 226.274 75.1986L219.857 81.2264V73.0597V64.8931H202.357H184.857V142.671V220.448H203.329H221.801V167.171C221.801 116.226 221.996 113.893 225.885 108.837C232.301 100.671 240.079 97.7542 255.051 97.7542H268.662L268.079 80.8375L267.496 63.9208L255.829 63.532C248.051 63.1431 242.218 64.1153 238.329 66.0597Z" fill="#232629"/>
<path fill-rule="evenodd" clip-rule="evenodd" d="M1247.26 32.3735L1167.23 289.209H1214.72L1294.75 32.3735H1247.26Z" fill="#D72638"/>
<path fill-rule="evenodd" clip-rule="evenodd" d="M1313.57 193.144L1383.37 166.638L1313.57 140.132V90.8521L1449.64 141.513H1450.01V192.173H1449.64L1313.57 242.576V193.144Z" fill="#D72638"/>
<path fill-rule="evenodd" clip-rule="evenodd" d="M136.889 117.101V67.8208L0.663502 118.423H0.359375V169.037H0.663502L136.889 219.697V170.312L67.0334 143.654L136.889 117.101Z" fill="#D72638"/>
</g>
<defs>
<clipPath id="clip0_67_3533">
<rect width="1451" height="373" fill="white"/>
</clipPath>
</defs>
</svg>
