<svg width="24" height="24" viewBox="0 0 24 24" fill="none" xmlns="http://www.w3.org/2000/svg">
<path fill-rule="evenodd" clip-rule="evenodd" d="M2.64955 5.86495C2.66103 5.89487 3.14638 7.96266 3.14638 7.98163C3.14638 7.99191 4.14515 7.99553 7.57979 7.99769L12.0132 8.00047L7.6547 9.10423C5.25754 9.7113 3.29621 10.2094 3.29621 10.2111C3.29621 10.2217 3.78565 12.2275 3.79424 12.2522L3.80484 12.2826H10.2364H16.668L16.6673 12.313C16.6669 12.3297 16.5634 12.9845 16.4374 13.768L16.2082 15.1927L16.1618 15.2011C16.1364 15.2056 15.1548 15.3198 13.9805 15.4548L11.8455 15.7002L9.88264 15.4033C8.80305 15.24 7.91248 15.1038 7.90356 15.1006C7.89466 15.0973 7.82346 14.7466 7.74533 14.3213C7.66719 13.8959 7.59818 13.5267 7.59196 13.5009L7.58067 13.4539H5.77553H3.97042L3.97141 13.4898C3.97197 13.5096 4.07962 14.2786 4.21062 15.1989C4.40393 16.5566 4.45405 16.8738 4.4765 16.8815C4.49171 16.8868 6.24261 17.1766 8.36738 17.5256L12.2306 18.1601L15.9522 17.4625C17.9991 17.0789 19.6766 16.7639 19.68 16.7625C19.6834 16.7611 19.8957 15.2814 20.152 13.4742C20.4082 11.6671 20.6231 10.1574 20.6296 10.1194L20.6413 10.0503L16.7023 10.0501L12.7632 10.0499L17.0566 8.99803L21.35 7.9462V6.89314V5.84009H11.995H2.64001L2.64955 5.86495Z" fill="#007ACC"/>
</svg>
