<svg width="24" height="24" viewBox="0 0 24 24" fill="none" xmlns="http://www.w3.org/2000/svg">
<path fill-rule="evenodd" clip-rule="evenodd" d="M16.0312 5.88308C14.6103 6.09361 13.4913 6.88367 13.0806 7.96633C12.8229 8.64584 12.8431 9.70529 13.1272 10.4119C13.4435 11.1984 14.1983 11.9209 15.2136 12.4089C15.5219 12.557 16.2178 12.8608 16.7601 13.084C17.9056 13.5554 18.3246 13.8166 18.5114 14.1757C18.7646 14.6626 18.6265 15.2899 18.2042 15.5696C17.6021 15.9685 16.4695 16.0113 15.632 15.6667C15.245 15.5075 14.7267 15.0881 14.4431 14.7048L14.2595 14.4565L13.1967 15.0253C12.6122 15.3381 12.1248 15.6002 12.1136 15.6076C12.062 15.6417 12.3847 16.1309 12.6669 16.4464C13.2792 17.131 14.2135 17.6601 15.2729 17.9222C15.8073 18.0543 16.0071 18.0724 16.9285 18.0722C17.8024 18.0721 18.0606 18.0508 18.4843 17.9444C19.9056 17.5875 20.8193 16.8556 21.2232 15.7506C21.3923 15.2881 21.3923 14.0267 21.2231 13.5644C20.8015 12.4118 19.9272 11.6693 18.0963 10.909C16.1187 10.0877 15.7971 9.9056 15.6172 9.50492C15.5069 9.25947 15.5074 8.82801 15.618 8.58156C15.7326 8.32648 16.0458 8.08811 16.3757 8.0051C16.7275 7.91652 17.2885 7.96758 17.6027 8.11677C17.8374 8.22815 18.2302 8.57902 18.4526 8.87587C18.547 9.00191 18.556 8.99807 19.4687 8.44566C19.9751 8.13911 20.4323 7.86417 20.4847 7.83481C20.5678 7.78819 20.5639 7.7525 20.4544 7.55597C20.2751 7.23435 19.4321 6.47094 19.0448 6.27932C18.354 5.93761 16.9282 5.75013 16.0312 5.88308ZM7.84737 10.422C7.84737 15.1132 7.84451 15.1582 7.51911 15.5431C7.31711 15.7821 6.9284 15.9253 6.48202 15.9253C5.83161 15.9253 5.42709 15.6701 5.01425 14.9996C4.91848 14.8439 4.83155 14.7062 4.8212 14.6934C4.79503 14.6613 2.64001 15.8783 2.64001 15.9251C2.64001 16.0066 3.23149 16.7971 3.45325 17.012C3.7723 17.3212 4.35615 17.6854 4.80462 17.8549C5.37527 18.0706 6.25246 18.193 6.93818 18.1524C7.69902 18.1073 8.02111 18.0319 8.66124 17.7493C9.33407 17.4522 9.84591 16.9862 10.1629 16.382C10.6246 15.5019 10.6038 15.76 10.6263 10.6543L10.6467 6.06022H9.247H7.84737V10.422Z" fill="#D6BA32"/>
</svg>
