<svg width="454" height="242" viewBox="0 0 454 242" fill="none" xmlns="http://www.w3.org/2000/svg">
<g clip-path="url(#clip0_63_3295)">
<path d="M204.11 117.681C186.686 182.261 172.166 236.745 171.751 238.681L171.198 242H194.568H217.938L250.021 122.659C267.721 57.112 282.103 2.62744 282.103 1.65944C282.103 0.414868 276.571 0 258.871 0H235.777L204.11 117.681Z" fill="#151515"/>
<path d="M73.0149 76.472L0 105.789L0.414857 129.85L0.691429 154.05L73.9829 183.367L147.274 212.683L147.689 187.654C147.827 172.719 147.551 162.347 146.721 161.933C146.03 161.518 125.425 154.189 101.087 145.891C76.6103 137.456 56.6971 130.403 56.6971 129.989C56.6971 129.574 77.3017 122.106 102.331 113.394L147.966 97.6297V72.3234C147.966 58.3566 147.551 47.0171 146.998 47.0171C146.306 47.1554 113.118 60.2926 73.0149 76.472Z" fill="#151515"/>
<path d="M305.611 72.1852V97.6297L351.246 113.394C376.414 122.106 396.88 129.574 396.88 129.989C396.88 130.403 387.338 133.861 375.722 137.871C364.244 141.743 343.64 148.934 330.226 153.497L305.611 162.071V187.515C305.611 201.482 305.75 212.96 306.026 212.96C306.164 212.96 339.353 199.685 379.594 183.505L452.886 153.912L453.3 129.85L453.577 105.789L380.839 76.7486C340.874 60.7075 307.547 47.432 306.856 47.2937C306.164 47.0172 305.611 57.3886 305.611 72.1852Z" fill="#151515"/>
</g>
<defs>
<clipPath id="clip0_63_3295">
<rect width="453.577" height="242" fill="white"/>
</clipPath>
</defs>
</svg>
