<svg width="24" height="24" viewBox="0 0 24 24" fill="none" xmlns="http://www.w3.org/2000/svg">
<path fill-rule="evenodd" clip-rule="evenodd" d="M12.029 3.02901C11.9915 3.06652 11.9898 21.8858 12.0273 21.8858C12.0577 21.8858 13.261 21.5563 17.3196 20.4368C17.7219 20.3258 18.1309 20.2145 18.2284 20.1894C18.3259 20.1643 18.4284 20.1262 18.456 20.1048C18.4837 20.0833 18.5201 19.8917 18.5369 19.679C18.5538 19.4663 18.5966 18.983 18.6322 18.6051C18.6677 18.2271 18.7256 17.5787 18.7609 17.1642C18.7961 16.7497 18.8551 16.0813 18.8919 15.679C18.9287 15.2767 19.0094 14.3689 19.0712 13.6618C19.1803 12.4126 19.2648 11.466 19.4469 9.45006C19.4953 8.91362 19.5842 7.9161 19.6444 7.23335C19.7046 6.55061 19.7953 5.52316 19.8458 4.95014C20.0056 3.13967 20.0112 3.06665 19.9926 3.03269C19.9701 2.99164 12.07 2.98796 12.029 3.02901Z" fill="#FFDA3E"/>
<path fill-rule="evenodd" clip-rule="evenodd" d="M12.8019 9.61503V13.4442L12.8934 13.4217C12.9438 13.4093 13.0857 13.3877 13.2088 13.3736C13.3319 13.3594 13.4692 13.3329 13.5139 13.3147C13.6093 13.2756 14.4123 13.1506 14.5672 13.1506C14.6257 13.1506 14.6736 13.1348 14.6736 13.1154C14.6736 13.0962 14.8701 13.0582 15.1104 13.0312C15.3506 13.0042 15.5565 12.9682 15.5681 12.9514C15.5921 12.9163 16.2963 12.8067 16.3235 12.8338C16.3333 12.8437 16.3234 13.2074 16.3014 13.642C16.2795 14.0766 16.2613 14.4965 16.261 14.5749C16.2603 14.7381 16.2027 14.7751 15.7925 14.8755C15.6582 14.9084 15.4843 14.9526 15.406 14.9738C15.3276 14.995 15.1537 15.0359 15.0194 15.0648C14.8851 15.0936 14.757 15.1305 14.7346 15.1466C14.7122 15.1627 14.584 15.1982 14.4498 15.2253C14.3155 15.2525 14.169 15.2905 14.1243 15.3099C14.0428 15.3451 13.5917 15.4624 13.0765 15.5824L12.8019 15.6464V16.6314V17.6165L12.9952 17.5783C13.1015 17.5574 13.225 17.5231 13.2698 17.5023C13.3572 17.4616 13.6617 17.3831 14.2463 17.2506C14.4477 17.205 14.6217 17.1548 14.6329 17.1391C14.6441 17.1233 14.7722 17.0885 14.9177 17.0616C15.0632 17.0347 15.2188 16.9972 15.2635 16.9782C15.386 16.9261 15.647 16.8621 15.8637 16.831C15.97 16.8158 16.057 16.7904 16.057 16.7747C16.057 16.759 16.1806 16.7221 16.3316 16.6926C16.4827 16.6633 16.6252 16.6243 16.6484 16.6061C16.6715 16.5879 16.8546 16.5418 17.0553 16.5037C17.2559 16.4655 17.4415 16.4142 17.4677 16.3895C17.513 16.3468 17.5871 15.452 17.7493 12.9878C17.7825 12.4843 17.8249 12.0441 17.8437 12.0097C17.8625 11.9753 17.8914 11.6685 17.9079 11.3281L17.9379 10.7092H17.6973C17.5649 10.7092 17.4393 10.7253 17.418 10.745C17.3968 10.7646 17.0406 10.8118 16.6266 10.8496C16.2126 10.8876 15.8373 10.934 15.7925 10.9527C15.7477 10.9715 15.4365 11.0085 15.1008 11.0349C14.7651 11.0614 14.4694 11.0892 14.4436 11.0968C14.4178 11.1043 14.3861 11.0705 14.373 11.0218C14.3599 10.9729 14.3489 10.2455 14.3486 9.40515C14.3482 8.27043 14.3606 7.86472 14.3969 7.82846C14.4334 7.79193 14.9141 7.77964 16.3093 7.77964H18.1728V7.65997C18.1728 7.59414 18.1882 7.53079 18.2071 7.51911C18.2259 7.50747 18.2535 7.24548 18.2683 6.93689C18.2831 6.62835 18.3069 6.24311 18.3213 6.08088L18.3474 5.78589H15.5746H12.8019V9.61503Z" fill="white"/>
<path fill-rule="evenodd" clip-rule="evenodd" d="M20.9802 1.99177C20.9694 2.08691 20.9146 2.70485 20.8584 3.36502C20.8023 4.0252 20.7288 4.84914 20.6952 5.19601C20.6616 5.54289 20.6075 6.14711 20.5749 6.53874C20.5423 6.93037 20.4879 7.55291 20.4541 7.92216C20.4203 8.29141 20.3461 9.12451 20.2892 9.7735C20.2324 10.4225 20.1589 11.2464 20.1259 11.6045C20.03 12.6468 19.9463 13.5859 19.8813 14.351C19.8481 14.7426 19.7934 15.356 19.7598 15.7141C19.7262 16.0721 19.6537 16.8778 19.5986 17.5044C19.5435 18.131 19.4674 18.9782 19.4295 19.387L19.3604 20.1305L19.1536 20.1882C19.0399 20.22 18.5806 20.3491 18.133 20.4751C17.6854 20.6012 17.0903 20.7683 16.8106 20.8465C16.5309 20.9248 16.0182 21.0687 15.6713 21.1664C15.3244 21.264 14.8118 21.4079 14.532 21.4862C14.2523 21.5644 13.6572 21.7315 13.2096 21.8576C12.7621 21.9836 12.302 22.1129 12.1873 22.145C12.0425 22.1854 11.9431 22.1917 11.8618 22.1655C11.7975 22.1447 11.2413 21.9878 10.6259 21.8168C10.0105 21.6457 9.39711 21.4718 9.26284 21.4303C9.12856 21.3887 8.70744 21.27 8.327 21.1667C7.94656 21.0633 7.52543 20.9444 7.39115 20.9026C7.25688 20.8607 6.68012 20.696 6.10946 20.5365C5.5388 20.377 4.97579 20.2196 4.85828 20.1865C4.74081 20.1535 4.64454 20.1041 4.64438 20.0768C4.64422 20.0494 4.59832 19.5144 4.54233 18.8878C4.48638 18.2612 4.4221 17.5288 4.39947 17.2602C4.37685 16.9917 4.32261 16.3875 4.27891 15.9175C4.20022 15.0718 4.07278 13.6381 3.9117 11.7876C3.86592 11.2617 3.79219 10.4377 3.74784 9.9566C3.70345 9.47546 3.65816 8.97193 3.6471 8.83766C3.63607 8.70339 3.59111 8.19986 3.54721 7.71872C3.5033 7.23757 3.42099 6.31292 3.36427 5.66394C3.12986 2.98234 3.08689 2.53668 3.02078 2.10367C3.00198 1.98059 2.99457 1.86613 3.00426 1.84936C3.01398 1.8326 7.06699 1.81885 12.011 1.81885H21L20.9802 1.99177ZM12.0365 3.43285C12.002 3.46727 12.0005 20.7391 12.0349 20.7391C12.0628 20.7391 13.1672 20.4367 16.892 19.4093C17.2612 19.3074 17.6366 19.2052 17.7261 19.1822C17.8156 19.1592 17.9096 19.1242 17.935 19.1046C17.9604 19.0849 17.9938 18.909 18.0093 18.7138C18.0247 18.5186 18.064 18.075 18.0967 17.7282C18.1292 17.3813 18.1824 16.7862 18.2148 16.4058C18.2472 16.0253 18.3013 15.4119 18.335 15.0427C18.3688 14.6734 18.4429 13.8403 18.4996 13.1914C18.5998 12.0449 18.6773 11.1761 18.8444 9.32592C18.8889 8.83359 18.9704 7.91809 19.0257 7.29149C19.081 6.66488 19.1641 5.72192 19.2105 5.19601C19.3571 3.53441 19.3623 3.46739 19.3452 3.43623C19.3246 3.39855 12.0741 3.39517 12.0365 3.43285ZM9.55523 5.75129C9.53989 5.76667 9.52731 7.88375 9.52731 10.456C9.52731 14.1805 9.51694 15.1289 9.47645 15.1135C9.4485 15.103 9.17841 15.0259 8.87629 14.9423C8.57418 14.8587 8.11643 14.7299 7.85908 14.6562C6.78436 14.3482 6.29077 14.2187 6.17318 14.2137L6.04843 14.2086L6.03756 15.2304C6.02922 16.0169 6.03858 16.2618 6.07825 16.2936C6.10661 16.3164 6.37699 16.4026 6.6791 16.4853C6.98122 16.5679 7.31079 16.6602 7.4115 16.6903C7.5122 16.7204 7.7777 16.7944 8.00149 16.8547C8.22527 16.9151 8.52739 16.998 8.67285 17.0391C9.02045 17.1374 10.1231 17.4449 10.6869 17.6009C10.9331 17.669 11.1711 17.73 11.2159 17.7366C11.297 17.7485 11.2973 17.7253 11.2973 11.7469V5.74531L10.4402 5.73437C9.96883 5.72835 9.57057 5.73595 9.55523 5.75129Z" fill="#D6BA32"/>
</svg>
