<svg width="24" height="24" viewBox="0 0 24 24" fill="none" xmlns="http://www.w3.org/2000/svg">
<path fill-rule="evenodd" clip-rule="evenodd" d="M16.3912 6.5508C14.9702 6.76133 13.8513 7.55139 13.4406 8.63406C13.1828 9.31357 13.203 10.373 13.4872 11.0796C13.8035 11.8662 14.5583 12.5886 15.5736 13.0766C15.8818 13.2247 16.5778 13.5285 17.1201 13.7518C18.2655 14.2232 18.6845 14.4843 18.8714 14.8434C19.1246 15.3303 18.9864 15.9576 18.5642 16.2374C17.9621 16.6363 16.8295 16.679 15.992 16.3344C15.605 16.1752 15.0867 15.7558 14.8031 15.3725L14.6195 15.1243L13.5567 15.693C12.9721 16.0059 12.4847 16.2679 12.4736 16.2753C12.422 16.3094 12.7447 16.7986 13.0269 17.1142C13.6392 17.7988 14.5735 18.3278 15.6329 18.5899C16.1673 18.7221 16.3671 18.7401 17.2885 18.74C18.1624 18.7398 18.4206 18.7186 18.8443 18.6122C20.2655 18.2552 21.1793 17.5233 21.5832 16.4183C21.7523 15.9558 21.7522 14.6944 21.5831 14.2321C21.1615 13.0795 20.2871 12.337 18.4562 11.5767C16.4787 10.7554 16.1571 10.5733 15.9772 10.1726C15.8669 9.9272 15.8674 9.49574 15.978 9.24928C16.0926 8.9942 16.4058 8.75584 16.7357 8.67282C17.0875 8.58425 17.6485 8.6353 17.9627 8.7845C18.1973 8.89588 18.5902 9.24674 18.8126 9.5436C18.907 9.66963 18.916 9.66579 19.8286 9.11338C20.3351 8.80683 20.7923 8.5319 20.8447 8.50253C20.9278 8.45591 20.9239 8.42022 20.8144 8.22369C20.6351 7.90208 19.7921 7.13866 19.4047 6.94704C18.7139 6.60534 17.2882 6.41785 16.3912 6.5508ZM8.20735 11.0897C8.20735 15.781 8.20449 15.8259 7.8791 16.2108C7.67709 16.4498 7.28838 16.593 6.84201 16.593C6.1916 16.593 5.78708 16.3379 5.37423 15.6673C5.27847 15.5116 5.19153 15.3739 5.18118 15.3611C5.15502 15.3291 3 16.546 3 16.5928C3 16.6743 3.59148 17.4648 3.81324 17.6797C4.13228 17.9889 4.71614 18.3531 5.16461 18.5226C5.73526 18.7384 6.61244 18.8607 7.29816 18.8201C8.05901 18.775 8.3811 18.6997 9.02122 18.417C9.69405 18.1199 10.2059 17.6539 10.5228 17.0498C10.9846 16.1696 10.9638 16.4277 10.9863 11.322L11.0067 6.72795H9.60699H8.20735V11.0897Z" fill="black"/>
</svg>
